# xmcd
#
# Track frame offsets:
# 150
# 21495
# 49533
# 71211
# 93021
# 115091
# 135770
# 158565
# 180093
# 191491
# 219589
# 230353
# 255215
#
# Disc length: 3412 seconds
#
#
# Revision: 0
# Processed by: cddbd v1.5.1PL0 Copyright (c) Steve Scherf et al.
# Submitted via: FreeRIP 2.51 
#
DISCID=980d520d
DTITLE=Slim Fatz - Slim Fatz
DYEAR=2002
DGENRE=Blues
TTITLE0=Smooth Blacktop
TTITLE1=Keep Walkin'
TTITLE2=Hurry Home
TTITLE3=Up All Night
TTITLE4=Marie
TTITLE5=Sorrows To Drown
TTITLE6=Avery Mountain
TTITLE7=Sleepwalkin'
TTITLE8=Happy Hour
TTITLE9=Sea Dreamin'
TTITLE10=Love Is A Rose
TTITLE11=Long Gone
TTITLE12=Untitled
EXTD=
EXTT0=
EXTT1=
EXTT2=
EXTT3=
EXTT4=
EXTT5=
EXTT6=
EXTT7=
EXTT8=
EXTT9=
EXTT10=
EXTT11=
EXTT12=
PLAYORDER=
